<svg id="feets" xmlns="http://www.w3.org/2000/svg" width="173" height="173" viewBox="0 0 173 173">
  <path id="Path_5" data-name="Path 5" d="M0,86.5A86.5,86.5,0,1,1,86.5,173,86.5,86.5,0,0,1,0,86.5Z" fill="rgba(54,75,68,0.83)"/>
  <path id="Path_6" data-name="Path 6" d="M178.961,204.86c-1.2-1.818-2.74-3.419-4.055-5.18a17.2,17.2,0,0,1-2.419-3.936,11.65,11.65,0,0,1,2.3-12.414c1.544-1.75,3.359-3.257,5.068-4.855a11.634,11.634,0,0,0,4.1-8.322c.139-3.676-1.669-6.68-4.964-7.582a26.606,26.606,0,0,0-5.19-.635,31.213,31.213,0,0,0-14.313,3.849c-4.055,2.325-6.94,5.626-7.748,10.444a22.9,22.9,0,0,0,1.125,11.921c1.274,3.419,2.889,6.7,4.393,10.032a31.26,31.26,0,0,1,3.041,12.313,19.855,19.855,0,0,0,.28,3.345c.7,3.666,2.413,6.623,5.862,8.231,2.081.966,4.278.77,6.45.456,4.082-.585,6.758-3.011,7.576-6.842S181.147,208.189,178.961,204.86Z" transform="translate(-100.249 -107.21)" fill="#fff"/>
  <path id="Path_7" data-name="Path 7" d="M235.208,120.139a10.562,10.562,0,0,0,2.183-6.7c-.047-.385-.084-1.034-.209-1.689a9.2,9.2,0,0,0-.449-1.564c-1.223-3.261-4.274-3.95-6.724-1.531s-3.237,7.694-1.618,10.779C229.981,122.477,233.042,122.795,235.208,120.139Z" transform="translate(-150.658 -70.986)" fill="#fff"/>
  <path id="Path_8" data-name="Path 8" d="M205.394,126.349a6.914,6.914,0,0,0,.906-7.822c-1.237-2.007-3.4-2.119-4.862-.23a6.613,6.613,0,0,0-1.328,4.22,5.832,5.832,0,0,0,.922,3.4A2.64,2.64,0,0,0,205.394,126.349Z" transform="translate(-132.491 -77.432)" fill="#fff"/>
  <path id="Path_9" data-name="Path 9" d="M182.578,133.449a5.514,5.514,0,0,0,1.071-3.338,5.434,5.434,0,0,0-1.125-3.406,2.1,2.1,0,0,0-3.423,0,5.85,5.85,0,0,0-.044,6.758A2.112,2.112,0,0,0,182.578,133.449Z" transform="translate(-117.858 -83.306)" fill="#fff"/>
  <path id="Path_10" data-name="Path 10" d="M167.1,143.862a4.592,4.592,0,0,0-1.014-5.2,1.724,1.724,0,0,0-2.808.6,11.052,11.052,0,0,0-.507,1.771,4.722,4.722,0,0,0,1.561,3.409A1.716,1.716,0,0,0,167.1,143.862Z" transform="translate(-107.772 -91.489)" fill="#fff"/>
  <path id="Path_11" data-name="Path 11" d="M156.323,157.623a10.841,10.841,0,0,0,.814-2.1,11.6,11.6,0,0,0-.777-1.973,1.376,1.376,0,0,0-2.365-.074,3.7,3.7,0,0,0-.125,4.153A1.385,1.385,0,0,0,156.323,157.623Z" transform="translate(-101.497 -101.195)" fill="#fff"/>
  <path id="Path_12" data-name="Path 12" d="M257.1,225.58a26.053,26.053,0,0,0-5.176-.77c-3.419,0-5.95,2.409-6.8,5.987a11.659,11.659,0,0,0,1.733,9.123c1.213,1.994,2.565,3.926,3.588,6.035a11.643,11.643,0,0,1-1.081,12.573,17.466,17.466,0,0,1-3.379,3.156c-1.716,1.352-3.622,2.483-5.271,3.926-2.994,2.609-4.126,6.143-4.349,10.018a8.446,8.446,0,0,0,5.481,8.613c2.027.882,4.078,1.652,6.342,1.274,3.754-.635,6.194-3.041,7.842-6.369a20.278,20.278,0,0,0,1.159-3.156,31,31,0,0,1,6.2-11.059c2.338-2.8,4.774-5.541,6.917-8.495a22.976,22.976,0,0,0,4.254-11.191c.51-4.859-1.416-8.812-4.68-12.13A31.238,31.238,0,0,0,257.1,225.58Z" transform="translate(-156.488 -148.849)" fill="#fff"/>
  <path id="Path_13" data-name="Path 13" d="M276.08,180.172c2.365-2.541,3.017-7.839,1.3-10.812s-4.832-3.132-6.883-.314a9.522,9.522,0,0,0-.855,1.4c-.287.578-.5,1.193-.642,1.558a10.455,10.455,0,0,0,.338,7.035C270.7,182.162,273.738,182.669,276.08,180.172Z" transform="translate(-177.818 -110.59)" fill="#fff"/>
  <path id="Path_14" data-name="Path 14" d="M307.184,194.639a5.8,5.8,0,0,0,1.794-3.041,6.545,6.545,0,0,0-.159-4.426c-.9-2.206-3.017-2.673-4.73-1.064a6.894,6.894,0,0,0-1.21,7.771A2.629,2.629,0,0,0,307.184,194.639Z" transform="translate(-200.073 -122.591)" fill="#fff"/>
  <path id="Path_15" data-name="Path 15" d="M329.308,208.294a5.828,5.828,0,0,0,1.757-6.518,2.1,2.1,0,0,0-3.3-.912,5.365,5.365,0,0,0-1.99,2.984,5.573,5.573,0,0,0,.145,3.5A2.1,2.1,0,0,0,329.308,208.294Z" transform="translate(-215.561 -132.685)" fill="#fff"/>
  <path id="Path_16" data-name="Path 16" d="M340.057,221.935a1.725,1.725,0,0,0,2.521,1.291,4.7,4.7,0,0,0,2.409-2.869,10.814,10.814,0,0,0,0-1.845,1.724,1.724,0,0,0-2.551-1.321A4.559,4.559,0,0,0,340.057,221.935Z" transform="translate(-225.1 -143.677)" fill="#fff"/>
  <path id="Path_17" data-name="Path 17" d="M352.815,234.754a1.387,1.387,0,0,0-2.311-.564,11.093,11.093,0,0,0-1.274,1.689,10.97,10.97,0,0,0,.223,2.24,1.393,1.393,0,0,0,2.365.676A3.706,3.706,0,0,0,352.815,234.754Z" transform="translate(-231.228 -154.782)" fill="#fff"/>
</svg>
