<svg xmlns="http://www.w3.org/2000/svg" width="200.916" height="204.869" viewBox="0 0 200.916 204.869">
  <g id="human-footprint" transform="matrix(0.799, 0.602, -0.602, 0.799, 92.407, -0.623)">
    <path id="Path_18" data-name="Path 18" d="M59.33,109.962c.845,14.641-2.2,20.437-12.388,22.068s-20.058-7.146-22.058-19.621c-.913-5.728-1.825-17.369-2.99-22.466L13.146,65.321c-.5-2.175-6.272-12.544-7.184-17.058A16.952,16.952,0,0,1,19.194,28.282s13.631-2.748,16.029-3.233,9.553-.961,9.553-.961c9.825,0,14.563,5.078,14.563,14.9,0,5.7-10.1,14.466-10.1,14.466S34.952,67.214,39.952,77.437C44.932,87.66,56.311,90.612,59.33,109.962ZM47.923,21.573c4.058,0,7.359-4.845,7.359-10.8S51.981,0,47.923,0c-4.087,0-7.388,4.835-7.388,10.777S43.835,21.573,47.923,21.573Zm-15.68-1.1c2.612-.369,4.291-3.767,3.738-7.592s-3.107-6.621-5.718-6.243-4.282,3.767-3.738,7.592S29.631,20.845,32.243,20.476ZM21.068,23.5c1.893-.447,2.893-3.049,2.243-5.806s-2.718-4.641-4.6-4.194-2.893,3.039-2.233,5.806S19.175,23.952,21.068,23.5Zm-9.039,5.922c1.65-.65,2.214-3.146,1.252-5.563S10.214,20.01,8.563,20.67,6.35,23.816,7.311,26.233,10.379,30.078,12.029,29.427Zm-9.845.7c-1.1.427-1.476,2.078-.845,3.689s2.039,2.553,3.136,2.126,1.476-2.087.845-3.689S3.282,29.689,2.185,30.126Zm115.9,23.35s-13.33-3.913-15.68-4.592c-2.35-.7-9.437-1.777-9.437-1.777-9.8-.835-14.942,3.825-15.777,13.612C76.69,66.379,86,75.981,86,75.981s13.068,14.932,7.2,24.68C87.36,110.408,75.777,112.4,71.127,131.4c-2.1,14.5.456,20.544,10.437,23.058,10.029,2.5,20.592-5.417,23.67-17.651,1.408-5.65,3.3-17.165,4.913-22.146l10.816-23.777c.689-2.136,7.32-11.961,8.621-16.379A16.963,16.963,0,0,0,118.088,53.476ZM90.039,44.311c4.058.35,7.757-4.175,8.272-10.117s-2.359-11.029-6.427-11.379-7.757,4.175-8.272,10.117S85.981,43.971,90.039,44.311Zm15.719.252c2.563.592,5.35-1.981,6.223-5.728.854-3.757-.515-7.282-3.078-7.874s-5.35,1.981-6.214,5.728S103.2,43.971,105.758,44.563Zm10.874,3.971c1.835.6,4.039-1.087,4.932-3.777s.117-5.369-1.718-5.971-4.049,1.087-4.942,3.777S114.787,47.932,116.632,48.534Zm12.7-1.728c-1.6-.8-3.835.437-4.99,2.767s-.806,4.854.8,5.651,3.835-.437,4.99-2.767S130.923,47.592,129.331,46.806Zm5.553,9.942c-1.058-.524-2.544.3-3.32,1.845-.757,1.544-.534,3.233.534,3.757s2.544-.291,3.32-1.845S135.952,57.282,134.884,56.748Z" fill="rgba(54,75,68,0.83)"/>
  </g>
</svg>
