<?xml version="1.0" encoding="UTF-8" standalone="no"?> <svg id="Layer_1" data-name="Layer 1" xmlns="http://www.w3.org/2000/svg" viewBox="0 0 512 512"><title>footpint-flat</title><path d="M0,256C0,114.62,114.62,0,256,0S512,114.63,512,256,397.37,512,256,512,0,397.38,0,256Z" fill="#00c7ff"/><path d="M232.95,289c-3.56-5.38-8.11-10.12-12-15.33-2.69-3.68-5.6-7.46-7.16-11.65-5-13.49-2.59-26,6.82-36.74,4.57-5.18,9.94-9.64,15-14.37,7.1-6.63,11.73-14.4,12.12-24.63.41-10.88-4.94-19.77-14.69-22.44-5-1.35-15.34-2.1-15.36-1.88-14.91.74-29.25,3.84-42.36,11.39-12,6.88-20.54,16.65-22.93,30.91a67.78,67.78,0,0,0,3.33,35.28c3.77,10.12,8.55,19.84,13,29.69,5.25,11.58,8.72,23.59,9,36.44a58.76,58.76,0,0,0,.83,9.9c2.08,10.85,7.14,19.6,17.35,24.36,6.16,2.86,12.66,2.28,19.09,1.35,12.08-1.73,20-8.91,22.42-20.25S239.42,298.85,232.95,289Z" fill="#fff"/><path d="M250.23,145.47c4.48-5.51,6.24-12,6.46-19.82-.14-1.14-.25-3.06-.62-5a27.24,27.24,0,0,0-1.33-4.63c-3.62-9.65-12.65-11.69-19.9-4.53s-9.58,22.77-4.79,31.9C234.76,152.39,243.82,153.33,250.23,145.47Z" fill="#fff"/><path d="M215.76,144.77c5.52-5.5,6.8-16.48,2.68-23.15-3.66-5.94-10.07-6.27-14.39-.68a19.57,19.57,0,0,0-3.93,12.49,17.26,17.26,0,0,0,2.73,10.07C206.2,148.45,211.54,149,215.76,144.77Z" fill="#fff"/><path d="M191.54,148.4c2.31-2.87,3-6.29,3.17-9.88-.17-3.7-.9-7.2-3.33-10.08-3-3.51-7.16-3.48-10.13,0-4.27,5-4.34,14.87-.13,20C184.18,152.15,188.53,152.15,191.54,148.4Z" fill="#fff"/><path d="M175.58,155c2.51-4.51,1-12.18-3-15.39-3-2.41-6.62-1.75-8.31,1.77a32.71,32.71,0,0,0-1.5,5.24c.4,4,1.52,7.55,4.62,10.09C170.32,159.13,173.71,158.35,175.58,155Z" fill="#fff"/><path d="M162.26,167c1.14-1.79,1.6-4,2.41-6.22-.8-2.09-1.25-4.16-2.3-5.84-1.75-2.77-4.93-2.76-7-.22-2.61,3.1-2.79,9-.37,12.29C157.06,169.86,160.34,170,162.26,167Z" fill="#fff"/><path d="M297.76,227.09c0-.22-10.16-2.28-15.32-2.28-10.12,0-17.61,7.13-20.12,17.72-2.37,10,.07,18.67,5.13,27,3.59,5.9,7.59,11.62,10.62,17.86,6.22,12.8,5.2,25.53-3.2,37.21-2.62,3.64-6.46,6.5-10,9.34-5.08,4-10.72,7.35-15.6,11.62-8.86,7.72-12.21,18.18-12.87,29.65s5,20.58,16.22,25.49c6,2.61,12.07,4.89,18.77,3.77,11.11-1.88,18.33-9,23.21-18.85a60,60,0,0,0,3.43-9.34c3.68-12.33,10.21-23,18.36-32.73,6.92-8.3,14.13-16.4,20.47-25.14a68,68,0,0,0,12.59-33.12c1.51-14.38-4.19-26.08-13.85-35.9C324.9,238.57,311.94,231.77,297.76,227.09Z" fill="#fff"/><path d="M290.81,205.93c7-7.52,8.93-23.2,3.86-32s-14.3-9.27-20.37-.93a28.18,28.18,0,0,0-2.53,4.13c-.85,1.71-1.47,3.53-1.9,4.61-1.87,7.59-1.9,14.32,1,20.82C274.89,211.82,283.88,213.32,290.81,205.93Z" fill="#fff"/><path d="M317,213.23a17.15,17.15,0,0,0,5.31-9,19.37,19.37,0,0,0-.47-13.1c-2.67-6.53-8.93-7.91-14-3.15-5.75,5.34-7.45,16.27-3.58,23C307.16,216.19,312.44,217.09,317,213.23Z" fill="#fff"/><path d="M336.64,223.77c5.42-3.82,8-13.31,5.2-19.29-1.95-4.16-6-5.29-9.76-2.7-3.14,2.13-4.75,5.31-5.89,8.83-.8,3.51-1,7,.43,10.37C328.52,225.39,332.69,226.55,336.64,223.77Z" fill="#fff"/><path d="M340.22,231.61c.91,3.71,4,5.36,7.46,3.82,3.65-1.62,5.68-4.71,7.13-8.49a32,32,0,0,0,0-5.46c-.69-3.85-4-5.43-7.55-3.91C342.47,219.59,339,226.58,340.22,231.61Z" fill="#fff"/><path d="M359.84,236.68c-1.37-3-4.43-3.89-6.84-1.67-1.48,1.34-2.45,3.21-3.77,5,.18,2.32.05,4.6.66,6.63,1,3.41,4.24,4.15,7,2C360.13,246.09,361.52,240.36,359.84,236.68Z" fill="#fff"/></svg>